<?xml version="1.0" encoding="iso-8859-1"?>
<!-- Generator: Adobe Illustrator 16.0.0, SVG Export Plug-In . SVG Version: 6.00 Build 0)  -->
<!DOCTYPE svg PUBLIC "-//W3C//DTD SVG 1.1//EN" "http://www.w3.org/Graphics/SVG/1.1/DTD/svg11.dtd">
<svg version="1.1" id="Capa_1" xmlns="http://www.w3.org/2000/svg" xmlns:xlink="http://www.w3.org/1999/xlink" x="0px" y="0px"
	 width="36.447px" height="36.447px" viewBox="0 0 36.447 36.447" style="enable-background:new 0 0 36.447 36.447;"
	 xml:space="preserve">
<g>
	<g>
		<path d="M30.224,3.948h-1.098V2.75c0-1.516-1.197-2.75-2.67-2.75c-1.474,0-2.67,1.234-2.67,2.75v1.197h-2.74V2.75
			c0-1.516-1.197-2.75-2.67-2.75c-1.473,0-2.67,1.234-2.67,2.75v1.197h-2.74V2.75c0-1.516-1.197-2.75-2.67-2.75
			c-1.473,0-2.67,1.234-2.67,2.75v1.197H6.224c-2.343,0-4.25,1.907-4.25,4.25v24c0,2.343,1.907,4.25,4.25,4.25h24
			c2.344,0,4.25-1.907,4.25-4.25v-24C34.474,5.854,32.567,3.948,30.224,3.948z M25.286,2.75c0-0.689,0.525-1.25,1.17-1.25
			c0.646,0,1.17,0.561,1.17,1.25v4.895c0,0.689-0.524,1.25-1.17,1.25c-0.645,0-1.17-0.561-1.17-1.25V2.75z M17.206,2.75
			c0-0.689,0.525-1.25,1.17-1.25s1.17,0.561,1.17,1.25v4.895c0,0.689-0.525,1.25-1.17,1.25s-1.17-0.561-1.17-1.25V2.75z M9.125,2.75
			c0-0.689,0.525-1.25,1.17-1.25s1.17,0.561,1.17,1.25v4.895c0,0.689-0.525,1.25-1.17,1.25s-1.17-0.561-1.17-1.25V2.75z
			 M31.974,32.198c0,0.965-0.785,1.75-1.75,1.75h-24c-0.965,0-1.75-0.785-1.75-1.75v-22h27.5V32.198z"/>
		<circle cx="18.223" cy="14.383" r="2.104"/>
		<path d="M12.965,26.794c0,1.099,1.504,1.779,3.372,2.048v2.01c0,0.666,0.538,1.203,1.201,1.203c0.662,0,1.203-0.539,1.203-1.203
			v-1.897c2.446-0.09,4.74-0.804,4.74-2.16c0-2.079-1.209-5.161-2.958-6.75c0.141-0.315,0.225-0.663,0.225-1.034
			c0-1.393-1.129-2.523-2.523-2.523c-1.263,0-3.264,0.92-3.875,2.523c-0.458,1.2,3.875,3.184,3.875,3.184s-2.201-0.369-3.298-1.016
			C13.73,22.846,12.965,25.141,12.965,26.794z M18.867,22.535c0.574-0.516,1.766-0.532,1.875,0.533
			c0.143,1.375-1.875,2.439-1.875,2.439s-2.017-1.064-1.875-2.439C17.103,22.002,18.292,22.02,18.867,22.535z"/>
	</g>
</g>
<g>
</g>
<g>
</g>
<g>
</g>
<g>
</g>
<g>
</g>
<g>
</g>
<g>
</g>
<g>
</g>
<g>
</g>
<g>
</g>
<g>
</g>
<g>
</g>
<g>
</g>
<g>
</g>
<g>
</g>
</svg>
