<?xml version="1.0" encoding="iso-8859-1"?>
<!-- Generator: Adobe Illustrator 19.0.0, SVG Export Plug-In . SVG Version: 6.00 Build 0)  -->
<svg version="1.1" id="Capa_1" xmlns="http://www.w3.org/2000/svg" xmlns:xlink="http://www.w3.org/1999/xlink" x="0px" y="0px"
	 viewBox="0 0 512 512" style="enable-background:new 0 0 512 512;" xml:space="preserve">
<circle style="fill:#00C7FF;" cx="256" cy="256" r="256"/>
<path style="fill:#0093C4;" d="M511.387,273.592L378.35,140.555l-15.758,11.852L331.74,121.4h-44.696
	c-0.107-0.104-10.332-10.302-10.332-10.302L133.65,409.754l101.387,101.387C241.951,511.702,248.94,512,256,512
	C391.47,512,502.346,406.769,511.387,273.592z"/>
<polygon style="fill:#FFED94;" points="378.35,140.555 256,140.555 243.978,275.155 256,409.755 378.35,409.755 "/>
<rect x="133.65" y="140.56" style="fill:#FFF8D4;" width="122.35" height="269.2"/>
<g>
	<rect x="162.95" y="208.17" style="fill:#6283A3;" width="56.33" height="56.33"/>
	<rect x="162.95" y="284.79" style="fill:#6283A3;" width="56.33" height="56.33"/>
</g>
<path style="fill:#9ABADB;" d="M331.74,121.4h-48.649c-3.945-11.158-14.582-19.155-27.091-19.155l-12.022,32.234L256,159.71h75.74
	V121.4z"/>
<path style="fill:#D1E8FF;" d="M228.909,121.4H180.26v38.31H256v-57.465C243.491,102.245,232.854,110.242,228.909,121.4z"/>
<g>
	<polygon style="fill:#294B6E;" points="349.618,208.166 256,208.166 249.989,217.175 256,226.184 349.618,226.184 	"/>
	<polygon style="fill:#294B6E;" points="349.618,246.475 256,246.475 249.989,255.484 256,264.493 349.618,264.493 	"/>
	<polygon style="fill:#294B6E;" points="349.618,284.785 256,284.785 249.989,293.794 256,302.803 349.618,302.803 	"/>
	<polygon style="fill:#294B6E;" points="349.618,323.095 256,323.095 249.989,332.104 256,341.113 349.618,341.113 	"/>
</g>
<g>
	<rect x="239" y="208.17" style="fill:#6283A3;" width="16.998" height="18.02"/>
	<rect x="239" y="246.47" style="fill:#6283A3;" width="16.998" height="18.02"/>
	<rect x="239" y="284.79" style="fill:#6283A3;" width="16.998" height="18.02"/>
	<rect x="239" y="323.1" style="fill:#6283A3;" width="16.998" height="18.02"/>
</g>
<g>
</g>
<g>
</g>
<g>
</g>
<g>
</g>
<g>
</g>
<g>
</g>
<g>
</g>
<g>
</g>
<g>
</g>
<g>
</g>
<g>
</g>
<g>
</g>
<g>
</g>
<g>
</g>
<g>
</g>
</svg>
