<svg id="Capa_1" enable-background="new 0 0 192 192" height="512" viewBox="0 0 192 192" width="512" xmlns="http://www.w3.org/2000/svg"><path d="m178.4 188.8h-164.8c-5.744 0-10.4-4.656-10.4-10.4v-140h185.6v140c0 5.744-4.656 10.4-10.4 10.4z" fill="#e7eced"/><path d="m16 57.6h156.8v64h-156.8z" fill="#dd352e"/><path d="m188.8 41.6h-185.6v-28c0-5.744 4.656-10.4 10.4-10.4h164.8c5.744 0 10.4 4.656 10.4 10.4z" fill="#556080"/><path d="m16 16h12.8v12.8h-12.8z" fill="#dd352e"/><path d="m41.6 16h12.8v12.8h-12.8z" fill="#ebba16"/><path d="m67.2 16h12.8v12.8h-12.8z" fill="#23a24d"/><path d="m16 137.6h19.2v19.2h-19.2z" fill="#ebba16"/><path d="m92.8 137.6h19.2v19.2h-19.2z" fill="#c5411e"/><path d="m54.4 137.6h19.2v19.2h-19.2z" fill="#366db6"/><path d="m28.8 70.4h44.8v38.4h-44.8z" fill="#fff"/><path d="m60.8 83.2 12.8 12.8v12.8h-25.6v-12.8z" fill="#188439"/><path d="m44.8 89.6-16 16 32 3.2z" fill="#23a24d"/><path d="m128 134.4h44.8v38.4h-44.8z" fill="#fff"/><path d="m160 147.2 12.8 12.8v12.8h-25.6v-12.8z" fill="#188439"/><path d="m144 153.6-16 16 32 3.2z" fill="#23a24d"/><g fill="#4d007e"><path d="m177.6 192h-163.2c-7.939 0-14.4-6.461-14.4-14.4v-163.2c0-7.939 6.461-14.4 14.4-14.4h163.2c7.939 0 14.4 6.461 14.4 14.4v163.2c0 7.939-6.461 14.4-14.4 14.4zm-163.2-185.6c-4.41 0-8 3.587-8 8v163.2c0 4.413 3.59 8 8 8h163.2c4.413 0 8-3.587 8-8v-163.2c0-4.413-3.59-8-8-8z"/><path d="m28.8 32h-12.8c-1.766 0-3.2-1.43-3.2-3.2v-12.8c0-1.77 1.434-3.2 3.2-3.2h12.8c1.766 0 3.2 1.43 3.2 3.2v12.8c0 1.77-1.434 3.2-3.2 3.2zm-9.6-6.4h6.4v-6.4h-6.4z"/><path d="m54.4 32h-12.8c-1.766 0-3.2-1.43-3.2-3.2v-12.8c0-1.77 1.434-3.2 3.2-3.2h12.8c1.766 0 3.2 1.43 3.2 3.2v12.8c0 1.77-1.434 3.2-3.2 3.2zm-9.6-6.4h6.4v-6.4h-6.4z"/><path d="m80 32h-12.8c-1.766 0-3.2-1.43-3.2-3.2v-12.8c0-1.77 1.434-3.2 3.2-3.2h12.8c1.766 0 3.2 1.43 3.2 3.2v12.8c0 1.77-1.434 3.2-3.2 3.2zm-9.6-6.4h6.4v-6.4h-6.4z"/><path d="m188.8 44.8h-185.6c-1.766 0-3.2-1.43-3.2-3.2v-27.2c0-7.939 6.461-14.4 14.4-14.4h163.2c7.939 0 14.4 6.461 14.4 14.4v27.2c0 1.77-1.434 3.2-3.2 3.2zm-182.4-6.4h179.2v-24c0-4.413-3.59-8-8-8h-163.2c-4.41 0-8 3.587-8 8z"/><path d="m73.6 112h-44.8c-1.766 0-3.2-1.43-3.2-3.2v-38.4c0-1.77 1.434-3.2 3.2-3.2h44.8c1.766 0 3.2 1.43 3.2 3.2v38.4c0 1.77-1.434 3.2-3.2 3.2zm-41.6-6.4h38.4v-32h-38.4z"/><path d="m60.8 112c-.819 0-1.638-.314-2.262-.938l-16.938-16.937-10.538 10.538c-1.251 1.251-3.274 1.251-4.525 0s-1.251-3.274 0-4.525l12.8-12.8c1.251-1.251 3.274-1.251 4.525 0l19.2 19.2c1.251 1.251 1.251 3.274 0 4.525-.624.623-1.443.937-2.262.937z"/><path d="m48 99.2c-.819 0-1.638-.314-2.262-.938-1.251-1.251-1.251-3.274 0-4.525l12.8-12.8c1.251-1.251 3.274-1.251 4.525 0s1.251 3.274 0 4.525l-12.8 12.8c-.625.624-1.444.938-2.263.938z"/><path d="m73.6 99.2c-.819 0-1.638-.314-2.262-.938l-12.8-12.8c-1.251-1.251-1.251-3.274 0-4.525s3.274-1.251 4.525 0l12.8 12.8c1.251 1.251 1.251 3.274 0 4.525-.625.624-1.444.938-2.263.938z"/><path d="m172.8 124.8h-156.8c-1.766 0-3.2-1.43-3.2-3.2v-64c0-1.77 1.434-3.2 3.2-3.2h156.8c1.766 0 3.2 1.43 3.2 3.2v64c0 1.77-1.434 3.2-3.2 3.2zm-153.6-6.4h150.4v-57.6h-150.4z"/><path d="m137.6 80h-51.2c-1.766 0-3.2-1.43-3.2-3.2s1.434-3.2 3.2-3.2h51.2c1.766 0 3.2 1.43 3.2 3.2s-1.434 3.2-3.2 3.2z"/><path d="m160 80h-9.6c-1.766 0-3.2-1.43-3.2-3.2s1.434-3.2 3.2-3.2h9.6c1.766 0 3.2 1.43 3.2 3.2s-1.434 3.2-3.2 3.2z"/><path d="m137.6 105.6h-51.2c-1.766 0-3.2-1.43-3.2-3.2s1.434-3.2 3.2-3.2h51.2c1.766 0 3.2 1.43 3.2 3.2s-1.434 3.2-3.2 3.2z"/><path d="m160 105.6h-9.6c-1.766 0-3.2-1.43-3.2-3.2s1.434-3.2 3.2-3.2h9.6c1.766 0 3.2 1.43 3.2 3.2s-1.434 3.2-3.2 3.2z"/><path d="m160 92.8h-51.2c-1.766 0-3.2-1.43-3.2-3.2s1.434-3.2 3.2-3.2h51.2c1.766 0 3.2 1.43 3.2 3.2s-1.434 3.2-3.2 3.2z"/><path d="m96 92.8h-9.6c-1.766 0-3.2-1.43-3.2-3.2s1.434-3.2 3.2-3.2h9.6c1.766 0 3.2 1.43 3.2 3.2s-1.434 3.2-3.2 3.2z"/><path d="m172.8 176h-44.8c-1.766 0-3.2-1.43-3.2-3.2v-38.4c0-1.77 1.434-3.2 3.2-3.2h44.8c1.766 0 3.2 1.43 3.2 3.2v38.4c0 1.77-1.434 3.2-3.2 3.2zm-41.6-6.4h38.4v-32h-38.4z"/><path d="m160 176c-.819 0-1.638-.314-2.262-.938l-16.938-16.937-10.538 10.538c-1.251 1.251-3.274 1.251-4.525 0s-1.251-3.274 0-4.525l12.8-12.8c1.251-1.251 3.274-1.251 4.525 0l19.2 19.2c1.251 1.251 1.251 3.274 0 4.525-.624.623-1.443.937-2.262.937z"/><path d="m147.2 163.2c-.819 0-1.638-.314-2.262-.938-1.251-1.251-1.251-3.274 0-4.525l12.8-12.8c1.251-1.251 3.274-1.251 4.525 0s1.251 3.274 0 4.525l-12.8 12.8c-.625.624-1.444.938-2.263.938z"/><path d="m172.8 163.2c-.819 0-1.638-.314-2.262-.938l-12.8-12.8c-1.251-1.251-1.251-3.274 0-4.525s3.274-1.251 4.525 0l12.8 12.8c1.251 1.251 1.251 3.274 0 4.525-.625.624-1.444.938-2.263.938z"/><path d="m35.2 172.8h-19.2c-1.766 0-3.2-1.43-3.2-3.2s1.434-3.2 3.2-3.2h19.2c1.766 0 3.2 1.43 3.2 3.2s-1.434 3.2-3.2 3.2z"/><path d="m35.2 160h-19.2c-1.766 0-3.2-1.43-3.2-3.2v-19.2c0-1.77 1.434-3.2 3.2-3.2h19.2c1.766 0 3.2 1.43 3.2 3.2v19.2c0 1.77-1.434 3.2-3.2 3.2zm-16-6.4h12.8v-12.8h-12.8z"/><path d="m112 172.8h-19.2c-1.766 0-3.2-1.43-3.2-3.2s1.434-3.2 3.2-3.2h19.2c1.766 0 3.2 1.43 3.2 3.2s-1.434 3.2-3.2 3.2z"/><path d="m112 160h-19.2c-1.766 0-3.2-1.43-3.2-3.2v-19.2c0-1.77 1.434-3.2 3.2-3.2h19.2c1.766 0 3.2 1.43 3.2 3.2v19.2c0 1.77-1.434 3.2-3.2 3.2zm-16-6.4h12.8v-12.8h-12.8z"/><path d="m73.6 172.8h-19.2c-1.766 0-3.2-1.43-3.2-3.2s1.434-3.2 3.2-3.2h19.2c1.766 0 3.2 1.43 3.2 3.2s-1.434 3.2-3.2 3.2z"/><path d="m73.6 160h-19.2c-1.766 0-3.2-1.43-3.2-3.2v-19.2c0-1.77 1.434-3.2 3.2-3.2h19.2c1.766 0 3.2 1.43 3.2 3.2v19.2c0 1.77-1.434 3.2-3.2 3.2zm-16-6.4h12.8v-12.8h-12.8z"/></g></svg>