<svg height="496pt" viewBox="0 0 496 496" width="496pt" xmlns="http://www.w3.org/2000/svg"><path d="m496 176h-88c-4.425781 0-8 3.585938-8 8v8h-20.6875l-29.65625-29.65625-11.3125 11.3125 29.65625 29.65625v89.375l-27.3125 27.3125h-4.6875v-136c0-13.230469-10.769531-24-24-24-2.816406 0-5.488281.574219-8 1.472656v-9.472656c0-13.230469-10.769531-24-24-24-3.160156 0-6.160156.648438-8.929688 1.761719-2.757812-10.203125-12.007812-17.761719-23.070312-17.761719-13.230469 0-24 10.769531-24 24v9.472656c-2.511719-.898437-5.183594-1.472656-8-1.472656-13.230469 0-24 10.769531-24 24v65.472656c-2.511719-.898437-5.183594-1.472656-8-1.472656-13.230469 0-24 10.769531-24 24v64h-4.6875l-27.3125-27.3125v-89.375l27.3125-27.3125h4.6875v40h16v-92.6875l27.3125-27.3125h89.375l27.3125 27.3125v20.6875h16v-24c0-2.121094-.839844-4.160156-2.34375-5.65625l-29.65625-29.65625v-20.6875h8c4.425781 0 8-3.585938 8-8v-56h-16v48h-112v-48h-16v56c0 4.414062 3.574219 8 8 8h8v20.6875l-29.65625 29.65625c-1.503906 1.496094-2.34375 3.535156-2.34375 5.65625v40h-8c-2.128906 0-4.160156.839844-5.65625 2.34375l-29.65625 29.65625h-20.6875v-8c0-4.414062-3.574219-8-8-8h-88v16h80v112h-80v16h88c4.425781 0 8-3.585938 8-8v-8h20.6875l29.65625 29.65625c1.496094 1.503906 3.527344 2.34375 5.65625 2.34375h8v8c0 2.121094.839844 4.160156 2.34375 5.65625l29.65625 29.65625v20.6875h-8c-4.425781 0-8 3.585938-8 8v88h16v-80h112v80h16v-88c0-4.414062-3.574219-8-8-8h-8v-20.6875l29.65625-29.65625c1.503906-1.496094 2.34375-3.535156 2.34375-5.65625v-8h8c2.128906 0 4.160156-.839844 5.65625-2.34375l29.65625-29.65625h20.6875v8c0 4.414062 3.574219 8 8 8h88v-16h-80v-112h80zm-208-112v16h-80v-16zm-192 144h16v80h-16zm112 192v-16h80v16zm112-59.3125-27.3125 27.3125h-89.375l-27.3125-27.3125v-84.6875c0-4.40625 3.585938-8 8-8s8 3.59375 8 8v24h16v-112c0-4.40625 3.585938-8 8-8s8 3.59375 8 8v80h16v-112c0-4.40625 3.585938-8 8-8s8 3.59375 8 8v112h16v-96c0-4.40625 3.585938-8 8-8s8 3.59375 8 8v96h16v-64c0-4.40625 3.585938-8 8-8s8 3.59375 8 8zm64-52.6875v-80h16v80zm0 0"/><path d="m208 432h16v16h-16zm0 0"/><path d="m272 432h16v16h-16zm0 0"/><path d="m432 272h16v16h-16zm0 0"/><path d="m432 208h16v16h-16zm0 0"/><path d="m208 16h16v16h-16zm0 0"/><path d="m272 16h16v16h-16zm0 0"/><path d="m48 208h16v16h-16zm0 0"/><path d="m48 272h16v16h-16zm0 0"/></svg>