<?xml version="1.0" encoding="iso-8859-1"?>
<!-- Generator: Adobe Illustrator 19.0.0, SVG Export Plug-In . SVG Version: 6.00 Build 0)  -->
<svg version="1.1" id="Capa_1" xmlns="http://www.w3.org/2000/svg" xmlns:xlink="http://www.w3.org/1999/xlink" x="0px" y="0px"
	 viewBox="0 0 491.102 491.102" style="enable-background:new 0 0 491.102 491.102;" xml:space="preserve">
<g>
	<g>
		<path style="fill:#00ACEA;" d="M425.796,276.898c-4.328,0-7.837-3.509-7.837-7.837V67.918h-65.306
			c-4.328,0-7.837-3.509-7.837-7.837s3.509-7.837,7.837-7.837h73.143c4.328,0,7.837,3.509,7.837,7.837v208.98
			C433.633,273.389,430.124,276.898,425.796,276.898z"/>
		<path style="fill:#00ACEA;" d="M281.6,67.918H150.988c-4.328,0-7.837-3.509-7.837-7.837s3.509-7.837,7.837-7.837H281.6
			c4.328,0,7.837,3.509,7.837,7.837S285.928,67.918,281.6,67.918z"/>
		<path style="fill:#00ACEA;" d="M293.094,412.735H7.837c-4.328,0-7.837-3.509-7.837-7.837V60.082c0-4.328,3.509-7.837,7.837-7.837
			h62.694c4.328,0,7.837,3.509,7.837,7.837s-3.509,7.837-7.837,7.837H15.673v329.143h277.42c4.328,0,7.837,3.509,7.837,7.837
			S297.422,412.735,293.094,412.735L293.094,412.735z"/>
		<path style="fill:#00ACEA;" d="M321.306,99.265c-4.328,0-7.837-3.509-7.837-7.837V28.735c0-4.328,3.509-7.837,7.837-7.837
			s7.837,3.509,7.837,7.837v62.694C329.143,95.757,325.634,99.265,321.306,99.265z"/>
		<path style="fill:#00ACEA;" d="M112.327,99.265c-4.328,0-7.837-3.509-7.837-7.837V28.735c0-4.328,3.509-7.837,7.837-7.837
			c4.328,0,7.837,3.509,7.837,7.837v62.694C120.163,95.757,116.655,99.265,112.327,99.265z"/>
		<path style="fill:#00ACEA;" d="M373.551,167.184H60.082c-4.328,0-7.837-3.509-7.837-7.837c0-4.328,3.509-7.837,7.837-7.837
			h313.469c4.328,0,7.837,3.509,7.837,7.837C381.388,163.675,377.879,167.184,373.551,167.184z"/>
		<path style="fill:#00ACEA;" d="M300.408,229.878H60.082c-4.328,0-7.837-3.509-7.837-7.837c0-4.328,3.509-7.837,7.837-7.837
			h240.327c4.328,0,7.837,3.509,7.837,7.837C308.245,226.369,304.736,229.878,300.408,229.878z"/>
		<path style="fill:#00ACEA;" d="M195.918,292.571H60.082c-4.328,0-7.837-3.509-7.837-7.837c0-4.328,3.509-7.837,7.837-7.837
			h135.837c4.328,0,7.837,3.509,7.837,7.837C203.755,289.063,200.246,292.571,195.918,292.571z"/>
	</g>
	<g>
		<path style="fill:#00EFD1;" d="M384,256c-59.151,0-107.102,47.951-107.102,107.102S324.849,470.204,384,470.204
			s107.102-47.951,107.102-107.102S443.151,256,384,256L384,256z M384,454.531c-50.495,0-91.429-40.934-91.429-91.429
			s40.934-91.429,91.429-91.429s91.429,40.934,91.429,91.429l0,0C475.143,413.478,434.376,454.245,384,454.531z"/>
		<path style="fill:#00EFD1;" d="M441.469,402.286h-7.837V360.49c-0.167-24.344-17.791-45.053-41.796-49.11v-13.584
			c0-4.328-3.509-7.837-7.837-7.837s-7.837,3.509-7.837,7.837v13.584c-24.004,4.057-41.629,24.766-41.796,49.11v41.796h-7.837
			c-4.328,0-7.837,3.509-7.837,7.837s3.509,7.837,7.837,7.837h49.633v10.449c0,4.328,3.509,7.837,7.837,7.837
			s7.837-3.509,7.837-7.837v-10.449h49.633c4.328,0,7.837-3.509,7.837-7.837S445.798,402.286,441.469,402.286z M350.041,360.49
			c0-18.755,15.204-33.959,33.959-33.959c18.755,0,33.959,15.204,33.959,33.959v41.796h-67.918V360.49z"/>
	</g>
</g>
<g>
</g>
<g>
</g>
<g>
</g>
<g>
</g>
<g>
</g>
<g>
</g>
<g>
</g>
<g>
</g>
<g>
</g>
<g>
</g>
<g>
</g>
<g>
</g>
<g>
</g>
<g>
</g>
<g>
</g>
</svg>
