<?xml version="1.0" encoding="iso-8859-1"?>
<!-- Generator: Adobe Illustrator 19.0.0, SVG Export Plug-In . SVG Version: 6.00 Build 0)  -->
<svg version="1.1" id="Capa_1" xmlns="http://www.w3.org/2000/svg" xmlns:xlink="http://www.w3.org/1999/xlink" x="0px" y="0px"
	 viewBox="0 0 512 512" style="enable-background:new 0 0 512 512;" xml:space="preserve">
<path style="fill:#EF6161;" d="M432.538,504.5H104.462c-16.547,0-29.962-13.414-29.962-29.962V37.462
	C74.5,20.914,87.914,7.5,104.462,7.5h328.077c16.547,0,29.962,13.414,29.962,29.962v437.077
	C462.5,491.086,449.086,504.5,432.538,504.5z"/>
<path style="fill:#E63950;" d="M432.559,7.5H402.6c16.536,0,29.941,13.423,29.941,29.982v437.035
	c0,16.559-13.405,29.982-29.941,29.982h29.959c16.536,0,29.941-13.423,29.941-29.982V37.482C462.5,20.923,449.095,7.5,432.559,7.5z"
	/>
<path style="fill:#FF7E47;" d="M383.648,441.972H153.352c-10.493,0-19-8.507-19-19l0,0c0-10.493,8.507-19,19-19h230.295
	c10.493,0,19,8.507,19,19l0,0C402.648,433.465,394.141,441.972,383.648,441.972z"/>
<path style="fill:#E66736;" d="M383.648,403.972h-29.814c10.493,0,19,8.506,19,19l0,0c0,10.493-8.507,19-19,19h29.814
	c10.493,0,19-8.507,19-19l0,0C402.648,412.478,394.141,403.972,383.648,403.972z"/>
<g>
	<path style="fill:#5E6875;" d="M94.5,100.878h-30c-8.284,0-15-6.716-15-15l0,0c0-8.284,6.716-15,15-15h30c8.284,0,15,6.716,15,15
		l0,0C109.5,94.162,102.784,100.878,94.5,100.878z"/>
	<path style="fill:#5E6875;" d="M94.5,168.927h-30c-8.284,0-15-6.716-15-15l0,0c0-8.284,6.716-15,15-15h30c8.284,0,15,6.716,15,15
		l0,0C109.5,162.211,102.784,168.927,94.5,168.927z"/>
	<path style="fill:#5E6875;" d="M94.5,236.976h-30c-8.284,0-15-6.716-15-15l0,0c0-8.284,6.716-15,15-15h30c8.284,0,15,6.716,15,15
		l0,0C109.5,230.26,102.784,236.976,94.5,236.976z"/>
	<path style="fill:#5E6875;" d="M94.5,305.024h-30c-8.284,0-15-6.716-15-15l0,0c0-8.284,6.716-15,15-15h30c8.284,0,15,6.716,15,15
		l0,0C109.5,298.309,102.784,305.024,94.5,305.024z"/>
	<path style="fill:#5E6875;" d="M94.5,373.073h-30c-8.284,0-15-6.716-15-15l0,0c0-8.284,6.716-15,15-15h30c8.284,0,15,6.716,15,15
		l0,0C109.5,366.357,102.784,373.073,94.5,373.073z"/>
	<path style="fill:#5E6875;" d="M94.5,441.122h-30c-8.284,0-15-6.716-15-15l0,0c0-8.284,6.716-15,15-15h30c8.284,0,15,6.716,15,15
		l0,0C109.5,434.406,102.784,441.122,94.5,441.122z"/>
</g>
<path style="fill:#FF7E47;" d="M268.5,139.528L268.5,139.528c-16.569,0-30-13.431-30-30v-9.5c0-16.569,13.431-30,30-30l0,0
	c16.569,0,30,13.431,30,30v9.5C298.5,126.097,285.069,139.528,268.5,139.528z"/>
<path style="fill:#E66736;" d="M268.5,70.028c-5.466,0-10.586,1.469-15,4.023c8.964,5.188,15,14.874,15,25.977v9.5
	c0,11.103-6.036,20.789-15,25.977c4.414,2.554,9.534,4.023,15,4.023c16.569,0,30-13.432,30-30v-9.5
	C298.5,83.46,285.069,70.028,268.5,70.028z"/>
<path style="fill:#FFD45E;" d="M372.833,403.972H164.167v-139c0-57.622,46.712-104.333,104.333-104.333l0,0
	c57.622,0,104.333,46.712,104.333,104.333V403.972z"/>
<path style="fill:#F0AF4F;" d="M268.5,160.638L268.5,160.638c-5.094,0-10.101,0.373-15,1.078
	c50.514,7.274,89.333,50.729,89.333,103.256v139h30v-139C372.833,207.35,326.122,160.638,268.5,160.638z"/>
<path d="M384,497H104.46C92.075,497,82,486.925,82,474.54v-25.918h12.5c12.406,0,22.5-10.094,22.5-22.5s-10.094-22.5-22.5-22.5H82
	v-23.049h12.5c12.406,0,22.5-10.094,22.5-22.5s-10.094-22.5-22.5-22.5H82v-23.049h12.5c12.406,0,22.5-10.094,22.5-22.5
	s-10.094-22.5-22.5-22.5H82v-23.049h12.5c12.406,0,22.5-10.094,22.5-22.5s-10.094-22.5-22.5-22.5H82v-23.049h12.5
	c12.406,0,22.5-10.094,22.5-22.5s-10.094-22.5-22.5-22.5H82v-23.049h12.5c12.406,0,22.5-10.094,22.5-22.5s-10.094-22.5-22.5-22.5H82
	V37.46C82,25.075,92.075,15,104.46,15h23.04c4.143,0,7.5-3.357,7.5-7.5S131.643,0,127.5,0h-23.04C83.805,0,67,16.805,67,37.46
	v25.918h-2.5c-12.406,0-22.5,10.094-22.5,22.5s10.094,22.5,22.5,22.5H67v23.049h-2.5c-12.406,0-22.5,10.094-22.5,22.5
	s10.094,22.5,22.5,22.5H67v23.049h-2.5c-12.406,0-22.5,10.094-22.5,22.5s10.094,22.5,22.5,22.5H67v23.049h-2.5
	c-12.406,0-22.5,10.094-22.5,22.5s10.094,22.5,22.5,22.5H67v23.049h-2.5c-12.406,0-22.5,10.094-22.5,22.5s10.094,22.5,22.5,22.5H67
	v23.049h-2.5c-12.406,0-22.5,10.094-22.5,22.5s10.094,22.5,22.5,22.5H67v25.918C67,495.195,83.805,512,104.46,512H384
	c4.143,0,7.5-3.357,7.5-7.5S388.143,497,384,497z M57,85.878c0-4.136,3.364-7.5,7.5-7.5l0,0c0.013,0-0.013,0,0,0s-0.013,0,0,0h30
	c4.136,0,7.5,3.364,7.5,7.5s-3.364,7.5-7.5,7.5h-30C60.364,93.378,57,90.014,57,85.878z M57,153.927c0-4.136,3.364-7.5,7.5-7.5h30
	c0.02,0,0,0,0.02,0s-0.039,0-0.02,0l0,0c4.136,0,7.5,3.364,7.5,7.5s-3.364,7.5-7.5,7.5h-30C60.364,161.427,57,158.063,57,153.927z
	 M57,221.976c0-4.136,3.364-7.5,7.5-7.5l0,0c0.032,0-0.033,0,0,0s-0.032,0,0,0h30c4.136,0,7.5,3.364,7.5,7.5s-3.364,7.5-7.5,7.5h-30
	C60.364,229.476,57,226.111,57,221.976z M57,290.024c0-4.136,3.364-7.5,7.5-7.5h30c4.136,0,7.5,3.364,7.5,7.5s-3.364,7.5-7.5,7.5
	H74.597c-0.032,0-0.064-0.005-0.097-0.005s-0.064,0.004-0.097,0.005H64.5C60.364,297.524,57,294.16,57,290.024z M57,358.073
	c0-4.136,3.364-7.5,7.5-7.5h30c4.136,0,7.5,3.364,7.5,7.5s-3.364,7.5-7.5,7.5H74.558c-0.02,0-0.039-0.003-0.058-0.003
	s-0.039,0.003-0.058,0.003H64.5C60.364,365.573,57,362.209,57,358.073z M57,426.122c0-4.136,3.364-7.5,7.5-7.5h30
	c4.136,0,7.5,3.364,7.5,7.5s-3.364,7.5-7.5,7.5h-30c-0.013,0,0.013,0,0,0s0.013,0,0,0l0,0C60.364,433.622,57,430.258,57,426.122z"/>
<path d="M432.54,0H160c-4.143,0-7.5,3.357-7.5,7.5s3.357,7.5,7.5,7.5h272.54C444.925,15,455,25.075,455,37.46v437.08
	c0,12.385-10.075,22.46-22.46,22.46H416c-4.143,0-7.5,3.357-7.5,7.5s3.357,7.5,7.5,7.5h16.54c20.655,0,37.46-16.805,37.46-37.46
	V37.46C470,16.805,453.195,0,432.54,0z"/>
<path d="M383.647,396.472h-3.314v-131.5c0-59.002-45.93-107.472-103.913-111.549v-7.244c16.886-3.646,29.58-18.69,29.58-36.651v-9.5
	c0-20.678-16.822-37.5-37.5-37.5S231,79.35,231,100.028v9.5c0,18.257,13.117,33.5,30.42,36.82v7.021
	c-58.378,3.666-104.753,52.316-104.753,111.603v86.778c0,4.143,3.357,7.5,7.5,7.5s7.5-3.357,7.5-7.5v-86.778
	c0-53.394,43.439-96.833,96.833-96.833s96.833,43.439,96.833,96.833v131.5H171.667V383.75c0-4.143-3.357-7.5-7.5-7.5
	s-7.5,3.357-7.5,7.5v12.722h-3.314c-14.612,0-26.5,11.888-26.5,26.5s11.888,26.5,26.5,26.5h230.295c14.612,0,26.5-11.888,26.5-26.5
	S398.26,396.472,383.647,396.472z M246,109.528v-9.5c0-12.406,10.094-22.5,22.5-22.5s22.5,10.094,22.5,22.5v9.5
	c0,12.406-10.094,22.5-22.5,22.5S246,121.935,246,109.528z M383.647,434.472H153.353c-6.341,0-11.5-5.159-11.5-11.5
	s5.159-11.5,11.5-11.5l0,0h230.295l0,0c6.341,0,11.5,5.159,11.5,11.5S389.988,434.472,383.647,434.472z"/>
<g>
</g>
<g>
</g>
<g>
</g>
<g>
</g>
<g>
</g>
<g>
</g>
<g>
</g>
<g>
</g>
<g>
</g>
<g>
</g>
<g>
</g>
<g>
</g>
<g>
</g>
<g>
</g>
<g>
</g>
</svg>
